<svg width="187" height="173" viewBox="0 0 187 173" fill="none" xmlns="http://www.w3.org/2000/svg">
<mask id="mask0_3101_27" style="mask-type:alpha" maskUnits="userSpaceOnUse" x="0" y="0" width="187" height="173">
<rect width="187" height="173" fill="#D9D9D9"/>
</mask>
<g mask="url(#mask0_3101_27)">
<circle cx="39.0807" cy="133.081" r="38.948" transform="rotate(45 39.0807 133.081)" fill="url(#paint0_linear_3101_27)"/>
<rect x="45.9999" y="43.5244" width="79.0586" height="79.0586" rx="5" transform="rotate(-33.4036 45.9999 43.5244)" fill="url(#paint1_linear_3101_27)"/>
<path d="M142.553 90.7742C143.669 87.9044 147.473 87.3192 149.4 89.7207L185.767 135.039C187.694 137.441 186.299 141.028 183.256 141.496L125.825 150.331C122.782 150.8 120.373 147.798 121.489 144.928L142.553 90.7742Z" fill="url(#paint2_linear_3101_27)"/>
</g>
<defs>
<linearGradient id="paint0_linear_3101_27" x1="0.132725" y1="133.081" x2="78.0287" y2="133.081" gradientUnits="userSpaceOnUse">
<stop stop-color="#AE6BF5"/>
<stop offset="0.501667" stop-color="#FF8000"/>
<stop offset="0.976667" stop-color="#FF0900"/>
</linearGradient>
<linearGradient id="paint1_linear_3101_27" x1="45.9999" y1="83.0537" x2="125.059" y2="83.0537" gradientUnits="userSpaceOnUse">
<stop stop-color="#AE6BF5"/>
<stop offset="0.501667" stop-color="#FF8000"/>
<stop offset="0.976667" stop-color="#FF0900"/>
</linearGradient>
<linearGradient id="paint2_linear_3101_27" x1="110.317" y1="131.699" x2="192.446" y2="119.064" gradientUnits="userSpaceOnUse">
<stop stop-color="#AE6BF5"/>
<stop offset="0.501667" stop-color="#FF8000"/>
<stop offset="0.976667" stop-color="#FF0900"/>
</linearGradient>
</defs>
</svg>
